# xmcd CD database file
#
# Track frame offsets:
#	150
#	28425
#	53700
#	65775
#	92400
#	124725
#	154050
#	186525
#	203250
#	237375
#	267825
#	295500
#	318825
#
# Disc length: 4693 seconds
#
# Revision: 0
# Processed by: cddbd v1.5.2PL0 Copyright (c) Steve Scherf et al.
# Submitted via: CDex 1.51
#
DISCID=b612530d
DTITLE=The Duke Pearson Quintet - Hush
DYEAR=1962
DGENRE=Jazz
TTITLE0=Hush!
TTITLE1=Child's Play
TTITLE2=Angel Eyes
TTITLE3=Smoothie
TTITLE4=Sudel
TTITLE5=Friday's Child
TTITLE6=Out Of This World
TTITLE7=Groovin' For Nat
TTITLE8=Hush! (Alt. take)
TTITLE9=Child's Play (Alt. take)
TTITLE10=Sudel (Alt. take)
TTITLE11=Little Johnny C
TTITLE12=Janno
EXTD=YEAR: 1962
EXTT0=
EXTT1=
EXTT2=
EXTT3=
EXTT4=
EXTT5=
EXTT6=
EXTT7=
EXTT8=
EXTT9=
EXTT10=
EXTT11=
EXTT12=
PLAYORDER=
